<?xml version="1.0" encoding="iso-8859-1"?>
<!-- Generator: Adobe Illustrator 16.0.0, SVG Export Plug-In . SVG Version: 6.00 Build 0)  -->
<!DOCTYPE svg PUBLIC "-//W3C//DTD SVG 1.1//EN" "http://www.w3.org/Graphics/SVG/1.1/DTD/svg11.dtd">
<svg xmlns="http://www.w3.org/2000/svg" xmlns:xlink="http://www.w3.org/1999/xlink" version="1.1" id="Capa_1" x="0px" y="0px" width="512px" height="512px" viewBox="0 0 55.772 55.772" style="enable-background:new 0 0 55.772 55.772;" xml:space="preserve">
<g>
	<g>
		<path d="M55.545,40.324L36.252,14.032c-0.442-0.604-1.45-0.604-1.896,0L23.065,29.417L16.594,20.6    c-0.221-0.302-0.572-0.479-0.947-0.479c-0.373,0-0.725,0.178-0.946,0.479L0.227,40.324c-0.261,0.355-0.301,0.83-0.101,1.225    c0.198,0.396,0.604,0.645,1.049,0.645h53.421c0.439,0,0.848-0.248,1.047-0.645C55.846,41.156,55.807,40.681,55.545,40.324z     M3.494,39.843l12.153-16.562l6.472,8.818c0.223,0.303,0.571,0.479,0.946,0.479c0.373,0,0.728-0.178,0.947-0.479l11.292-15.386    l16.973,23.132L3.494,39.843L3.494,39.843z" fill="#FFFFFF"/>
		<path d="M16.402,25.115c-0.166-0.229-0.432-0.367-0.715-0.367c-0.002,0-0.002,0-0.004,0c-0.285,0.001-0.553,0.14-0.715,0.373    l-2.859,4.044c-0.145,0.206-0.194,0.464-0.139,0.708c0.057,0.245,0.217,0.454,0.438,0.573l1.285,0.699    c0.131,0.07,0.277,0.105,0.422,0.105c0.168,0,0.339-0.049,0.484-0.146l1.229-0.812l1.155,0.8c0.277,0.192,0.64,0.209,0.931,0.045    l1.149-0.644c0.22-0.123,0.375-0.333,0.431-0.578c0.057-0.246,0.002-0.502-0.146-0.707L16.402,25.115z" fill="#FFFFFF"/>
		<path d="M35.287,18.213c-0.285,0.001-0.552,0.141-0.715,0.373l-2.857,4.044c-0.146,0.206-0.194,0.464-0.139,0.709    c0.056,0.245,0.217,0.454,0.438,0.574l1.285,0.698c0.131,0.07,0.274,0.105,0.42,0.105c0.17,0,0.338-0.048,0.483-0.146l1.229-0.811    l1.155,0.8c0.274,0.19,0.64,0.208,0.933,0.044l1.147-0.644c0.22-0.122,0.377-0.333,0.431-0.578    c0.056-0.245,0.002-0.502-0.146-0.706l-2.947-4.099c-0.166-0.23-0.435-0.367-0.717-0.367    C35.291,18.213,35.289,18.213,35.287,18.213z" fill="#FFFFFF"/>
	</g>
</g>
</svg>
