<?xml version="1.0" encoding="iso-8859-1"?>
<!-- Generator: Adobe Illustrator 19.0.0, SVG Export Plug-In . SVG Version: 6.00 Build 0)  -->
<svg xmlns="http://www.w3.org/2000/svg" xmlns:xlink="http://www.w3.org/1999/xlink" version="1.1" id="Capa_1" x="0px" y="0px" viewBox="0 0 320.802 320.802" style="enable-background:new 0 0 320.802 320.802;" xml:space="preserve" width="512px" height="512px">
<g>
	<path d="M164.982,29.452c-67.547,0-122.5,54.953-122.5,122.5s54.953,122.5,122.5,122.5s122.5-54.953,122.5-122.5   S232.529,29.452,164.982,29.452z M272.45,154.452h-49.475v15h48.074c-2.56,15.57-8.47,30.026-16.973,42.593v-0.093H131.726v15   h110.19c-19.537,20.036-46.805,32.5-76.934,32.5c-59.276,0-107.5-48.225-107.5-107.5c0-7.273,0.73-14.378,2.113-21.25h105.387v-15   H63.778c1.632-4.543,3.561-8.945,5.765-13.183h80.933v-15H78.985c19.629-26.132,50.872-43.067,85.997-43.067   c59.276,0,107.5,48.225,107.5,107.5C272.482,152.788,272.469,153.62,272.45,154.452z" fill="#FFFFFF"/>
	<path d="M295.035,7.524c-14.208,0-25.766,11.559-25.766,25.767c0,14.207,11.559,25.766,25.766,25.766s25.767-11.559,25.767-25.766   C320.802,19.083,309.243,7.524,295.035,7.524z M295.035,44.056c-5.937,0-10.766-4.829-10.766-10.766s4.83-10.767,10.766-10.767   s10.767,4.83,10.767,10.767S300.972,44.056,295.035,44.056z" fill="#FFFFFF"/>
	<path d="M36.384,240.51C16.322,240.51,0,256.832,0,276.894s16.322,36.384,36.384,36.384c20.062,0,36.384-16.321,36.384-36.384   S56.446,240.51,36.384,240.51z M36.384,298.278c-11.792,0-21.384-9.593-21.384-21.384s9.593-21.384,21.384-21.384   c11.791,0,21.384,9.593,21.384,21.384S48.175,298.278,36.384,298.278z" fill="#FFFFFF"/>
</g>
</svg>
